<svg id="Capa_1" enable-background="new 0 0 510 510" height="512" viewBox="0 0 510 510" width="512" xmlns="http://www.w3.org/2000/svg" xmlns:xlink="http://www.w3.org/1999/xlink"><linearGradient id="lg1"><stop offset="0" stop-color="#ffe177"/><stop offset="1" stop-color="#97d729"/></linearGradient><linearGradient id="SVGID_1_" gradientTransform="matrix(-.663 .749 .749 .663 -87.387 293.941)" gradientUnits="userSpaceOnUse" x1="-422.153" x2="-422.153" xlink:href="#lg1" y1="292.872" y2="319.874"/><linearGradient id="lg2"><stop offset="0" stop-color="#22b27f"/><stop offset="1" stop-color="#017b4e"/></linearGradient><linearGradient id="SVGID_2_" gradientUnits="userSpaceOnUse" x1="323.859" x2="426.228" xlink:href="#lg2" y1="249.825" y2="249.825"/><linearGradient id="lg3"><stop offset="0" stop-color="#017b4e" stop-opacity="0"/><stop offset=".2808" stop-color="#017549" stop-opacity=".281"/><stop offset="1" stop-color="#026841"/></linearGradient><linearGradient id="SVGID_3_" gradientUnits="userSpaceOnUse" x1="446.35" x2="370.35" xlink:href="#lg3" y1="264.889" y2="251.889"/><linearGradient id="SVGID_4_" gradientTransform="matrix(.754 .657 -.657 .754 5.695 297.629)" gradientUnits="userSpaceOnUse" x1="-44.812" x2="-44.812" xlink:href="#lg1" y1="-320.783" y2="-293.781"/><linearGradient id="SVGID_5_" gradientTransform="matrix(.941 -.338 .338 .941 23.079 -184.745)" gradientUnits="userSpaceOnUse" x1="-26.226" x2="-26.226" xlink:href="#lg1" y1="510.857" y2="537.859"/><linearGradient id="SVGID_6_" gradientTransform="matrix(.976 -.22 .22 .976 -28.226 -119.469)" gradientUnits="userSpaceOnUse" x1="105.465" x2="105.465" xlink:href="#lg1" y1="386.483" y2="413.485"/><linearGradient id="SVGID_7_" gradientUnits="userSpaceOnUse" x1="182.21" x2="409.76" xlink:href="#lg2" y1="181.286" y2="181.286"/><linearGradient id="SVGID_8_" gradientTransform="matrix(-1 0 0 1 -554 0)" gradientUnits="userSpaceOnUse" x1="-883.426" x2="-718.309" xlink:href="#lg2" y1="181.286" y2="181.286"/><linearGradient id="SVGID_9_" gradientUnits="userSpaceOnUse" x1="233.827" x2="323.701" xlink:href="#lg2" y1="181.286" y2="181.286"/><linearGradient id="SVGID_10_" gradientUnits="userSpaceOnUse" x1="296.205" x2="234.205" xlink:href="#lg3" y1="78.525" y2="-23.141"/><linearGradient id="SVGID_11_" gradientUnits="userSpaceOnUse" x1="383.646" x2="302.98" xlink:href="#lg3" y1="91.281" y2="89.947"/><linearGradient id="SVGID_12_" gradientUnits="userSpaceOnUse" x1="320.735" x2="116.472" xlink:href="#lg3" y1="197.287" y2="-6.976"/><linearGradient id="SVGID_13_" gradientUnits="userSpaceOnUse" x1="267.521" x2="267.521" xlink:href="#lg3" y1="292.667" y2="347.37"/><linearGradient id="SVGID_14_" gradientUnits="userSpaceOnUse" x1="289.903" x2="249.153" xlink:href="#lg3" y1="367.614" y2="308.864"/><linearGradient id="SVGID_15_" gradientUnits="userSpaceOnUse" x1="255.294" x2="169.794" xlink:href="#lg3" y1="225.285" y2="183.285"/><linearGradient id="SVGID_16_" gradientUnits="userSpaceOnUse" x1="378.08" x2="339.414" xlink:href="#lg3" y1="383.304" y2="325.637"/><linearGradient id="SVGID_17_" gradientUnits="userSpaceOnUse" x1="284.952" x2="244.952" xlink:href="#lg3" y1="296.899" y2="195.899"/><linearGradient id="SVGID_18_" gradientUnits="userSpaceOnUse" x1="76.074" x2="204.284" xlink:href="#lg2" y1="135.505" y2="135.505"/><linearGradient id="SVGID_19_" gradientUnits="userSpaceOnUse" x1="141.553" x2="100.053" xlink:href="#lg3" y1="228.685" y2="89.685"/><linearGradient id="SVGID_20_" gradientUnits="userSpaceOnUse" x1="138.533" x2="82.033" xlink:href="#lg3" y1="118.514" y2="12.514"/><linearGradient id="SVGID_21_" gradientTransform="matrix(.754 .657 -.657 .754 5.695 297.629)" gradientUnits="userSpaceOnUse" x1="8.946" x2="8.946" xlink:href="#lg1" y1="-367.671" y2="-340.669"/><linearGradient id="SVGID_22_" gradientTransform="matrix(.941 -.338 .338 .941 23.079 -184.745)" gradientUnits="userSpaceOnUse" x1="40.911" x2="40.911" xlink:href="#lg1" y1="534.962" y2="561.964"/><linearGradient id="SVGID_23_" gradientTransform="matrix(.976 -.22 .22 .976 -28.226 -119.469)" gradientUnits="userSpaceOnUse" x1="175.059" x2="175.059" xlink:href="#lg1" y1="402.14" y2="429.142"/><linearGradient id="SVGID_24_" gradientTransform="matrix(.981 .192 -.192 .981 27.921 63.861)" gradientUnits="userSpaceOnUse" x1="201.886" x2="201.886" xlink:href="#lg1" y1="-12.826" y2="14.176"/><linearGradient id="SVGID_25_" gradientUnits="userSpaceOnUse" x1="383.39" x2="341.39" xlink:href="#lg3" y1="202.204" y2="151.454"/><linearGradient id="SVGID_26_" gradientUnits="userSpaceOnUse" x1="389.778" x2="330.933" xlink:href="#lg3" y1="291.077" y2="232.232"/><linearGradient id="SVGID_27_" gradientTransform="matrix(-.995 -.1 -.1 .995 -647.026 -80.335)" gradientUnits="userSpaceOnUse" x1="-1022.96" x2="-1022.96" xlink:href="#lg1" y1="136.321" y2="163.323"/><linearGradient id="SVGID_28_" gradientTransform="matrix(-.754 .657 .657 .754 -657.633 297.629)" gradientUnits="userSpaceOnUse" x1="-918.791" x2="-918.791" xlink:href="#lg1" y1="441.508" y2="468.51"/><linearGradient id="SVGID_29_" gradientTransform="matrix(-.941 -.338 -.338 .941 -675.017 -184.745)" gradientUnits="userSpaceOnUse" x1="-1117.718" x2="-1117.718" xlink:href="#lg1" y1="118.976" y2="145.978"/><linearGradient id="SVGID_30_" gradientTransform="matrix(-.976 -.22 -.22 .976 -623.712 -119.469)" gradientUnits="userSpaceOnUse" x1="-1025.965" x2="-1025.965" xlink:href="#lg1" y1="131.941" y2="158.943"/><linearGradient id="SVGID_31_" gradientTransform="matrix(-.981 .192 .192 .981 -679.86 63.861)" gradientUnits="userSpaceOnUse" x1="-1006.148" x2="-1006.148" xlink:href="#lg1" y1="224.075" y2="251.077"/><linearGradient id="SVGID_32_" gradientTransform="matrix(.754 .657 -.657 .754 5.695 297.629)" gradientUnits="userSpaceOnUse" x1="-83.144" x2="-83.144" xlink:href="#lg1" y1="-233.388" y2="-206.386"/><linearGradient id="SVGID_33_" gradientTransform="matrix(.967 -.254 .254 .967 -57.003 -147.806)" gradientUnits="userSpaceOnUse" x1="57.999" x2="57.999" xlink:href="#lg1" y1="294.202" y2="321.204"/><linearGradient id="SVGID_34_" gradientTransform="matrix(.532 -.847 .847 .532 -370.589 -309.69)" gradientUnits="userSpaceOnUse" x1="-157.982" x2="-157.982" xlink:href="#lg1" y1="671.465" y2="698.467"/><linearGradient id="SVGID_35_" gradientTransform="matrix(-.967 -.254 -.254 .967 -39.671 -147.806)" gradientUnits="userSpaceOnUse" x1="-556.432" x2="-556.432" xlink:href="#lg1" y1="245.273" y2="272.275"/><linearGradient id="SVGID_36_" gradientTransform="matrix(-.532 -.847 -.847 .532 273.916 -309.69)" gradientUnits="userSpaceOnUse" x1="-573.141" x2="-573.141" xlink:href="#lg1" y1="215.876" y2="242.878"/><linearGradient id="lg4"><stop offset="0" stop-color="#f6a96c"/><stop offset="1" stop-color="#ca6e59"/></linearGradient><linearGradient id="SVGID_37_" gradientUnits="userSpaceOnUse" x1="94.381" x2="440.662" xlink:href="#lg4" y1="434" y2="434"/><linearGradient id="lg5"><stop offset="0" stop-color="#ca6e59" stop-opacity="0"/><stop offset=".3856" stop-color="#aa5844" stop-opacity=".386"/><stop offset=".7675" stop-color="#914634" stop-opacity=".768"/><stop offset="1" stop-color="#883f2e"/></linearGradient><linearGradient id="SVGID_38_" gradientUnits="userSpaceOnUse" x1="267.522" x2="267.522" xlink:href="#lg5" y1="486" y2="310.825"/><linearGradient id="SVGID_39_" gradientUnits="userSpaceOnUse" x1="267.522" x2="267.522" xlink:href="#lg4" y1="348.667" y2="381.361"/><linearGradient id="SVGID_40_" gradientUnits="userSpaceOnUse" x1="267.522" x2="267.522" xlink:href="#lg5" y1="477" y2="522"/><g><g><path d="m407.8 183.938 15.692-17.742c2.744-3.103 7.484-3.393 10.587-.649 3.103 2.744 3.393 7.484.649 10.587l-15.9 17.977c-2.795 3.16-7.66 3.403-10.757.493-2.994-2.811-2.992-7.59-.271-10.666z" fill="url(#SVGID_1_)"/></g><path d="m306.763 312.921c15.93 15.93 40.993 18.139 59.464 5.241l55.347-38.649c29.826-20.828 33.591-63.547 7.868-89.27-25.723-25.723-68.442-21.958-89.27 7.868l-38.649 55.347c-12.899 18.47-10.69 43.532 5.24 59.463z" fill="url(#SVGID_2_)"/><path d="m382.522 173.396c-16.337 1.566-32.031 9.936-42.35 24.713l-38.649 55.347c-12.898 18.471-10.69 43.534 5.241 59.464 15.93 15.93 40.993 18.139 59.464 5.241l55.347-38.649c14.777-10.319 23.147-26.013 24.713-42.35z" fill="url(#SVGID_3_)"/><g><g><path d="m188.188 38-17.85-15.569c-3.122-2.723-7.859-2.399-10.582.722-2.723 3.122-2.399 7.859.722 10.582l18.087 15.775c3.179 2.773 8.035 2.386 10.731-.899 2.606-3.173 1.987-7.912-1.108-10.611z" fill="url(#SVGID_4_)"/></g><g><path d="m183.765 305.839-22.292 8.004c-3.898 1.4-5.924 5.695-4.524 9.593 1.4 3.898 5.695 5.924 9.593 4.524l22.588-8.11c3.971-1.426 5.998-5.855 4.443-9.809-1.503-3.822-5.943-5.59-9.808-4.202z" fill="url(#SVGID_5_)"/></g><g><path d="m172.03 236.917-23.108 5.199c-4.041.909-6.58 4.922-5.671 8.963.909 4.041 4.922 6.58 8.963 5.671l23.415-5.268c4.116-.926 6.674-5.072 5.617-9.188-1.021-3.977-5.209-6.278-9.216-5.377z" fill="url(#SVGID_6_)"/></g></g><g><path d="m348.904 362.572h-162.765l-38.909-219.029c-13.297-74.852 44.267-143.543 120.291-143.543 76.024 0 133.588 68.691 120.291 143.543z" fill="url(#SVGID_7_)"/><path d="m208.468 362.572h118.107l28.234-219.028c9.649-74.853-32.122-143.544-87.287-143.544-55.166 0-96.936 68.691-87.287 143.543z" fill="url(#SVGID_8_)"/><path d="m299.665 362.572h-64.286l-15.368-219.028c-5.252-74.853 17.483-143.544 47.51-143.544 30.027 0 52.763 68.691 47.511 143.543z" fill="url(#SVGID_9_)"/><path d="m384.381 162.86-123.86-123.86s-30.831-6.987-27.71-4.265l148.089 147.715z" fill="url(#SVGID_10_)"/></g><path d="m338.946 23.027c-.175.128-.347.259-.513.404l-17.85 15.569c-3.095 2.699-3.714 7.438-1.108 10.612 0 0 44.308 44.316 44.362 44.379l-22.707 4.453c-4.03.79-6.935 4.585-6.266 8.636.4 2.423 1.912 4.362 3.913 5.416l46.322 46.322 2.714-15.276c8.593-48.372-12.414-94.164-48.867-120.515z" fill="url(#SVGID_11_)"/><g><path d="m372.43 230.135-127.754-127.755c-.855-2.598-36.521 3.614-32.907 4.734l154.984 154.984z" fill="url(#SVGID_12_)"/></g><path d="m171.116 278 15.023 84.572h162.765l15.023-84.572z" fill="url(#SVGID_13_)"/><path d="m265.907 311.041c-1.503-3.822-5.943-5.59-9.808-4.202l-22.292 8.004c-3.898 1.4-5.924 5.695-4.524 9.593.827 2.304 2.669 3.946 4.84 4.621.012.038 14.689 14.722 33.483 33.515h49.784c-26.157-26.142-51.444-51.431-51.483-51.531z" fill="url(#SVGID_14_)"/><path d="m312.079 362.572h36.825l15.863-89.298-194.139-194.138c-3.76-4.387-8.043-8.078-12.681-11.062-11.114 22.419-15.5 48.546-10.717 75.469l11.704 65.884z" fill="url(#SVGID_15_)"/><path d="m355.94 322.963-4.542-4.542c-.842-1.607-2.258-2.918-4.1-3.58l-22.292-8.004c-3.865-1.388-8.305.38-9.808 4.202-1.426 3.626.166 7.644 3.5 9.387l32.007 32.007z" fill="url(#SVGID_16_)"/><path d="m252.002 241.547c-1.13-3.822-35.297 13.772-32.822 14.543l106.482 106.481h23.242l3.639-20.484z" fill="url(#SVGID_17_)"/><path d="m207.642 198.602c-15.93 15.93-40.993 18.139-59.464 5.241l-55.347-38.649c-29.826-20.828-33.591-63.547-7.868-89.27 25.723-25.723 68.442-21.958 89.27 7.868l38.649 55.347c12.899 18.47 10.69 43.532-5.24 59.463z" fill="url(#SVGID_18_)"/><path d="m179.561 211.96c-.85.09-1.7.15-2.55.2-.75.03-1.49.05-2.24.05-9.24 0-18.54-2.75-26.59-8.37l-42.1-29.4-2.51-1.75-.03-.02-10.71-7.48c-8.74-6.1-15.25-14.09-19.42-22.97-1.86-3.96-3.26-8.09-4.18-12.32l18.29-4.9c3.54-.93 7.32.69 8.92 3.84z" fill="url(#SVGID_19_)"/><g><path d="m203.363 202.377c1.485-1.16 2.918-2.414 4.28-3.775 2.387-2.387 4.459-4.982 6.225-7.725l-111.017-111.207-9.96-8.69c-2.42 1.77-4.74 3.75-6.93 5.94-1.43 1.43-2.76 2.91-4 4.43z" fill="url(#SVGID_20_)"/></g><g><g><path d="m259.521 38-17.85-15.569c-3.122-2.723-7.859-2.399-10.582.722-2.723 3.122-2.399 7.859.722 10.582l18.087 15.775c3.179 2.773 8.035 2.386 10.731-.899 2.606-3.173 1.987-7.912-1.108-10.611z" fill="url(#SVGID_21_)"/></g><g><path d="m255.099 305.839-22.292 8.004c-3.898 1.4-5.924 5.695-4.524 9.593 1.4 3.898 5.695 5.924 9.593 4.524l22.588-8.11c3.971-1.426 5.999-5.855 4.443-9.809-1.503-3.822-5.943-5.59-9.808-4.202z" fill="url(#SVGID_22_)"/></g><g><path d="m243.363 236.917-23.108 5.199c-4.041.909-6.58 4.922-5.671 8.963.909 4.041 4.922 6.58 8.963 5.671l23.415-5.268c4.116-.926 6.674-5.072 5.617-9.188-1.021-3.977-5.209-6.278-9.216-5.377z" fill="url(#SVGID_23_)"/></g><g><path d="m238.975 97.444-23.243-4.558c-4.065-.797-8.006 1.852-8.803 5.917-.797 4.065 1.852 8.006 5.917 8.803l23.551 4.619c4.14.812 8.152-1.951 8.844-6.144.669-4.052-2.236-7.847-6.266-8.637z" fill="url(#SVGID_24_)"/></g></g><path d="m382.189 175.201-6.618-6.618c-1.133-2.155-3.289-3.72-5.892-3.981l-23.568-2.361c-4.086-.409-7.965 2.382-8.497 6.455-.421 3.221 1.261 6.198 3.95 7.612l34.33 34.33z" fill="url(#SVGID_25_)"/><path d="m368.749 250.861-3.905-3.905c-.987-1.882-2.759-3.337-4.994-3.84l-23.108-5.199c-4.006-.901-8.195 1.4-9.216 5.378-.889 3.461.784 6.935 3.784 8.506l31.65 31.65z" fill="url(#SVGID_26_)"/><g><g><path d="m345.11 161.241 23.568 2.361c4.122.413 7.128 4.089 6.715 8.21-.413 4.122-4.089 7.128-8.21 6.715l-23.88-2.392c-4.198-.42-7.239-4.226-6.689-8.439.532-4.072 4.41-6.864 8.496-6.455z" fill="url(#SVGID_27_)"/></g><g><path d="m319.583 38 17.85-15.569c3.122-2.723 7.859-2.399 10.582.722 2.723 3.122 2.399 7.859-.722 10.582l-18.087 15.775c-3.179 2.773-8.035 2.386-10.731-.899-2.606-3.173-1.987-7.912 1.108-10.611z" fill="url(#SVGID_28_)"/></g><g><path d="m324.006 305.839 22.292 8.004c3.898 1.4 5.924 5.695 4.524 9.593-1.4 3.898-5.695 5.924-9.593 4.524l-22.588-8.11c-3.971-1.426-5.999-5.855-4.443-9.809 1.503-3.822 5.943-5.59 9.808-4.202z" fill="url(#SVGID_29_)"/></g><g><path d="m335.741 236.917 23.108 5.199c4.041.909 6.58 4.922 5.671 8.963-.909 4.041-4.922 6.58-8.963 5.671l-23.415-5.268c-4.116-.926-6.674-5.072-5.617-9.188 1.021-3.977 5.21-6.278 9.216-5.377z" fill="url(#SVGID_30_)"/></g><g><path d="m340.13 97.444 23.243-4.558c4.065-.797 8.006 1.852 8.803 5.917.797 4.065-1.852 8.006-5.917 8.803l-23.551 4.619c-4.14.812-8.152-1.951-8.844-6.144-.669-4.052 2.236-7.847 6.266-8.637z" fill="url(#SVGID_31_)"/></g></g><g><g><path d="m101.855 78.667-17.85-15.569c-3.122-2.723-7.859-2.399-10.582.722-2.723 3.122-2.399 7.859.722 10.582l18.087 15.775c3.179 2.773 8.035 2.386 10.731-.899 2.605-3.173 1.987-7.912-1.108-10.611z" fill="url(#SVGID_32_)"/></g><g><path d="m86.521 124-22.907 6.023c-4.006 1.053-6.4 5.155-5.346 9.161 1.053 4.006 5.155 6.4 9.161 5.346l23.211-6.103c4.08-1.073 6.488-5.308 5.284-9.383-1.163-3.939-5.431-6.088-9.403-5.044z" fill="url(#SVGID_33_)"/></g><g><path d="m124.332 174.34-12.608 20.051c-2.205 3.506-1.15 8.137 2.357 10.341 3.506 2.205 8.137 1.15 10.341-2.357l12.776-20.317c2.246-3.571 1.11-8.308-2.554-10.461-3.541-2.08-8.126-.733-10.312 2.743z" fill="url(#SVGID_34_)"/></g></g><g><g><path d="m423.479 232.931 22.907 6.023c4.006 1.053 6.4 5.155 5.346 9.161-1.053 4.006-5.155 6.4-9.161 5.346l-23.211-6.103c-4.08-1.073-6.488-5.308-5.284-9.383 1.163-3.938 5.431-6.088 9.403-5.044z" fill="url(#SVGID_35_)"/></g><g><path d="m385.668 283.272 12.608 20.051c2.205 3.506 1.15 8.137-2.357 10.341-3.507 2.205-8.137 1.15-10.341-2.357l-12.776-20.317c-2.246-3.571-1.11-8.308 2.554-10.461 3.541-2.081 8.126-.734 10.312 2.743z" fill="url(#SVGID_36_)"/></g></g><g><path d="m372.81 510h-210.577c-15.764 0-29.572-10.567-33.69-25.784l-34.162-126.216h346.281l-34.162 126.216c-4.118 15.217-17.926 25.784-33.69 25.784z" fill="url(#SVGID_37_)"/><path d="m94.381 358 6.349 23.459 128.541 128.541h143.539c15.764 0 29.572-10.567 33.69-25.784l34.162-126.216z" fill="url(#SVGID_38_)"/><path d="m432.259 381.606-329.496-.037c-10.764-.006-19.485-8.736-19.479-19.5.006-10.764 8.736-19.485 19.5-19.479l329.496.037c10.764.006 19.485 8.736 19.479 19.5-.006 10.764-8.736 19.485-19.5 19.479z" fill="url(#SVGID_39_)"/><path d="m118.199 446 10.344 38.216c4.119 15.217 17.926 25.784 33.69 25.784h210.577c15.764 0 29.572-10.567 33.69-25.784l10.344-38.216z" fill="url(#SVGID_40_)"/></g></g></svg>